<svg version="1.1" xmlns="http://www.w3.org/2000/svg" xmlns:xlink="http://www.w3.org/1999/xlink" width="54.70474" height="54.70474" viewBox="0,0,54.70474,54.70474"><g transform="translate(-212.64766,-152.64765)"><g data-paper-data="{&quot;isPaintingLayer&quot;:true}" fill-rule="nonzero" stroke="none" stroke-width="0" stroke-linecap="butt" stroke-linejoin="miter" stroke-miterlimit="10" stroke-dasharray="" stroke-dashoffset="0" style="mix-blend-mode: normal"><path d="M212.64767,180.00002c0,-15.10629 12.24607,-27.35237 27.35237,-27.35237c15.10629,0 27.35237,12.24607 27.35237,27.35237c0,15.10629 -12.24607,27.35237 -27.35237,27.35237c-15.10629,0 -27.35237,-12.24607 -27.35237,-27.35237z" fill="#ffffff"/><path d="M224.36608,188.80784v-6.95383l-1.5453,-12.03125l8.00092,8.88951l2.81616,-11.15226l6.45714,10.7067l4.63589,-10.37556l4.43924,10.54102l7.37558,-9.42007l-1.3736,12.07539l0.26548,7.88593c0,0 -9.80424,1.15897 -14.90108,1.15897c-5.28994,0 -16.17043,-1.32454 -16.17043,-1.32454z" fill="#6c6c6c"/></g></g></svg>