<svg width="500" height="1478" viewBox="0 0 500 1478" fill="none" xmlns="http://www.w3.org/2000/svg">
<g clip-path="url(#clip0_74_30)">
<rect width="500" height="1478" fill="#010B13"/>
<g filter="url(#filter0_f_74_30)">
<path d="M201.335 718.03C271.98 718.03 329.25 915.915 329.25 1160.02C329.25 1404.12 271.98 1602.01 201.335 1602.01C130.69 1602.01 73.4201 1404.12 73.4201 1160.02C73.4201 915.915 130.69 718.03 201.335 718.03Z" fill="#010B13"/>
<path d="M195.172 941C266.007 941 323.43 1138.89 323.43 1382.99C323.43 1627.09 266.007 1824.98 195.172 1824.98C124.338 1824.98 66.9145 1627.09 66.9145 1382.99C66.9145 1138.89 124.338 941 195.172 941Z" fill="#40A4F4"/>
<path d="M19.9814 1029C87.9904 1029 143.123 1101.53 143.123 1191C143.123 1280.47 87.9904 1353 19.9814 1353C-48.0276 1353 -103.16 1280.47 -103.16 1191C-103.16 1101.53 -48.0276 1029 19.9814 1029Z" fill="#40A4F4"/>
<path d="M363.974 787.002C434.62 787.002 491.889 984.887 491.889 1228.99C491.889 1473.1 434.62 1670.98 363.974 1670.98C293.329 1670.98 236.059 1473.1 236.059 1228.99C236.059 984.887 293.329 787.002 363.974 787.002Z" fill="#010B13"/>
<path d="M54.368 609C132.129 609 195.167 705.483 195.167 824.5C195.167 943.517 132.129 1040 54.368 1040C-23.3932 1040 -86.4312 943.517 -86.4312 824.5C-86.4312 705.483 -23.3932 609 54.368 609Z" fill="#010B13"/>
<path d="M223.513 1240C301.274 1240 364.312 1336.48 364.312 1455.5C364.312 1574.52 301.274 1671 223.513 1671C145.752 1671 82.7137 1574.52 82.7137 1455.5C82.7137 1336.48 145.752 1240 223.513 1240Z" fill="#010B13"/>
<path d="M453.067 463C542.634 463 615.242 565.975 615.242 693C615.242 820.025 542.634 923 453.067 923C363.5 923 290.892 820.025 290.892 693C290.892 565.975 363.5 463 453.067 463Z" fill="#40A4F4"/>
<path d="M234.665 -407C336.551 -407 419.145 -240.002 419.145 -34C419.145 172.002 336.551 339 234.665 339C132.78 339 50.1859 172.002 50.1859 -34C50.1859 -240.002 132.78 -407 234.665 -407Z" fill="#40A4F4"/>
</g>
</g>
<defs>
<filter id="filter0_f_74_30" x="-425.16" y="-729" width="1362.4" height="2875.98" filterUnits="userSpaceOnUse" color-interpolation-filters="sRGB">
<feFlood flood-opacity="0" result="BackgroundImageFix"/>
<feBlend mode="normal" in="SourceGraphic" in2="BackgroundImageFix" result="shape"/>
<feGaussianBlur stdDeviation="161" result="effect1_foregroundBlur_74_30"/>
</filter>
<clipPath id="clip0_74_30">
<rect width="500" height="1478" fill="white"/>
</clipPath>
</defs>
</svg>
