<svg version="1.1" xmlns="http://www.w3.org/2000/svg" xmlns:xlink="http://www.w3.org/1999/xlink" width="54.70474" height="54.70474" viewBox="0,0,54.70474,54.70474"><g transform="translate(-212.64763,-152.64763)"><g data-paper-data="{&quot;isPaintingLayer&quot;:true}" fill-rule="nonzero" stroke-linecap="butt" stroke-linejoin="miter" stroke-miterlimit="10" stroke-dasharray="" stroke-dashoffset="0" style="mix-blend-mode: normal"><path d="M212.64764,180.00001c0,-15.10629 12.24607,-27.35237 27.35237,-27.35237c15.10629,0 27.35237,12.24607 27.35237,27.35237c0,15.10629 -12.24607,27.35237 -27.35237,27.35237c-15.10629,0 -27.35237,-12.24607 -27.35237,-27.35237z" fill="#ffffff" stroke="none" stroke-width="0"/><path d="M225.97514,180c0,-7.74571 6.27915,-14.02487 14.02487,-14.02487c7.74571,0 14.02487,6.27915 14.02487,14.02487c0,7.74571 -6.27915,14.02487 -14.02487,14.02487c-7.74571,0 -14.02487,-6.27915 -14.02487,-14.02487z" fill="none" stroke="#6c6c6c" stroke-width="3.5"/><path d="M238.47666,176.17159v-3.06555h3.36032v3.06555z" fill="#6c6c6c" stroke="none" stroke-width="0"/><path d="M238.3674,186.99615v-9.09447h3.36032v9.09447z" fill="#6c6c6c" stroke="none" stroke-width="0"/></g></g></svg>