<svg version="1.1" xmlns="http://www.w3.org/2000/svg" xmlns:xlink="http://www.w3.org/1999/xlink" width="54.70474" height="54.70474" viewBox="0,0,54.70474,54.70474"><g transform="translate(-212.64765,-152.64765)"><g data-paper-data="{&quot;isPaintingLayer&quot;:true}" fill-rule="nonzero" stroke="none" stroke-width="0" stroke-linecap="butt" stroke-linejoin="miter" stroke-miterlimit="10" stroke-dasharray="" stroke-dashoffset="0" style="mix-blend-mode: normal"><path d="M212.64766,180.00002c0,-15.10629 12.24607,-27.35237 27.35237,-27.35237c15.10629,0 27.35237,12.24607 27.35237,27.35237c0,15.10629 -12.24607,27.35237 -27.35237,27.35237c-15.10629,0 -27.35237,-12.24607 -27.35237,-27.35237z" fill="#ffffff"/><path d="M224.41676,188.87423c0,-3.85965 0,-15.51631 0,-17.69409c0,-0.85777 0.65216,-1.29647 1.50993,-1.29647c3.18622,0 23.51918,0 28.5379,0c0.66523,0 1.11865,0.36201 1.11865,1.02724c0,1.98401 0,13.76541 0,17.82871c0,0.73714 -0.2469,1.37672 -0.98403,1.37672c-2.73694,0 -24.47737,0 -29.25583,0c-0.59464,0 -0.92661,-1.2421 -0.92661,-1.2421z" fill="#6c6c6c"/><path d="M233.4171,187.98v-2.48351h12.96946v2.48351z" fill="#ffffff"/><g fill="#ffffff"><path d="M227.52261,181.09211v-2.48351h2.5387v2.48351z"/><path d="M231.91553,181.06989v-2.48351h2.5387v2.48351z"/><path d="M236.44105,181.12508v-2.48351h2.5387v2.48351z"/><path d="M240.83397,181.10286v-2.48351h2.5387v2.48351z"/><path d="M245.58024,181.15805v-2.48351h2.5387v2.48351z"/><path d="M249.97316,181.13583v-2.48351h2.5387v2.48351z"/></g><g fill="#ffffff"><path d="M227.55558,176.98589v-2.48351h2.53871v2.48351z"/><path d="M231.9485,176.96367v-2.48351h2.5387v2.48351z"/><path d="M236.47402,177.01886v-2.48351h2.5387v2.48351z"/><path d="M240.86694,176.99664v-2.48351h2.5387v2.48351z"/><path d="M245.61321,177.05183v-2.48351h2.5387v2.48351z"/><path d="M250.00613,177.02961v-2.48351h2.5387v2.48351z"/></g></g></g></svg>