<svg version="1.1" xmlns="http://www.w3.org/2000/svg" xmlns:xlink="http://www.w3.org/1999/xlink" width="54.70474" height="54.70474" viewBox="0,0,54.70474,54.70474"><g transform="translate(-212.64764,-152.64765)"><g data-paper-data="{&quot;isPaintingLayer&quot;:true}" fill-rule="nonzero" stroke="none" stroke-width="0" stroke-linecap="butt" stroke-linejoin="miter" stroke-miterlimit="10" stroke-dasharray="" stroke-dashoffset="0" style="mix-blend-mode: normal"><path d="M212.64765,180.00002c0,-15.10629 12.24607,-27.35237 27.35237,-27.35237c15.10629,0 27.35237,12.24607 27.35237,27.35237c0,15.10629 -12.24607,27.35237 -27.35237,27.35237c-15.10629,0 -27.35237,-12.24607 -27.35237,-27.35237z" fill="#ffffff"/><g fill="#6c6c6c"><path d="M253.48653,175.35709h-21.86761v-3.36032h21.86762z"/><path d="M226.32325,173.6205c0,-1.01584 0.8235,-1.83934 1.83933,-1.83934c1.01584,0 1.83934,0.8235 1.83934,1.83934c0,1.01584 -0.8235,1.83933 -1.83934,1.83933c-1.01584,0 -1.83933,-0.82349 -1.83933,-1.83933z"/><path d="M253.58164,181.88987h-21.86762v-3.36032h21.86762z"/><path d="M226.41836,180.15328c0,-1.01584 0.8235,-1.83934 1.83933,-1.83934c1.01584,0 1.83934,0.8235 1.83934,1.83934c0,1.01584 -0.8235,1.83933 -1.83934,1.83933c-1.01584,0 -1.83933,-0.82349 -1.83933,-1.83933z"/><path d="M253.67675,188.11609h-21.86761v-3.36032h21.86762z"/><path d="M226.51347,186.3795c0,-1.01584 0.8235,-1.83933 1.83933,-1.83933c1.01584,0 1.83933,0.8235 1.83933,1.83933c0,1.01584 -0.8235,1.83933 -1.83933,1.83933c-1.01584,0 -1.83933,-0.8235 -1.83933,-1.83933z"/></g></g></g></svg>