<svg width="34" height="33" viewBox="0 0 34 33" fill="none" xmlns="http://www.w3.org/2000/svg">
<path d="M26.7037 30.0416C25.4877 31.1457 17.5737 25.6272 17.5737 25.6272C17.5737 25.6272 9.75855 31.2994 8.76556 30.6612C7.77094 29.6969 10.1347 20.5966 10.1347 20.5966C10.1347 20.5966 2.2597 15.3527 2.63429 13.7611C2.87834 12.0371 12.6128 11.9556 12.6128 11.9556C12.6128 11.9556 15.1622 2.78558 16.7835 2.6964C18.4084 2.73899 21.5844 11.6455 21.5844 11.6455C21.5844 11.6455 31.123 11.0892 31.6617 12.7594C32.2052 14.101 24.6501 20.0956 24.6501 20.0956C24.6501 20.0956 27.7945 29.0675 26.7037 30.0416Z" fill="#F2F03F" stroke="black" stroke-width="3.5" stroke-miterlimit="10"/>
</svg>
